<svg width="48" height="48" viewBox="0 0 48 48" fill="none" xmlns="http://www.w3.org/2000/svg">
<rect width="48" height="48" rx="4" fill="#FED7E2"/>
<path d="M29.5 19H20C16.7 19 14 21.7 14 25C14 28.3 16.7 31 20 31H31C31.6 31 32 30.6 32 30C32 29.4 31.6 29 31 29H20C17.8 29 16 27.2 16 25C16 22.8 17.8 21 20 21H29.5C30.9 21 32 22.1 32 23.5C32 24.9 30.9 26 29.5 26H21C20.4 26 20 25.6 20 25C20 24.4 20.4 24 21 24H26C26.6 24 27 23.6 27 23C27 22.4 26.6 22 26 22H21C19.3 22 18 23.3 18 25C18 26.7 19.3 28 21 28H29.5C32 28 34 26 34 23.5C34 21 32 19 29.5 19Z" fill="black"/>
</svg>
