<svg width="476" height="96" viewBox="0 0 476 96" fill="none" xmlns="http://www.w3.org/2000/svg">
<g clip-path="url(#clip0_224_335)">
<path d="M24.2456 41.1431V13.7138L48 27.4275V54.8569L24.2456 41.1431Z" fill="#90CDF4"/>
<path d="M24.2456 13.7137L48 0L71.7544 13.7137L48 27.4275" fill="#3182CE"/>
<path d="M48 27.4275L71.7544 13.7138V41.1431L48 54.8569" fill="#EBF8FF"/>
<path d="M0.491211 82.2862V54.8569L24.2456 68.5706V96L0.491211 82.2862Z" fill="#90CDF4"/>
<path d="M0.491211 54.8569L24.2456 41.1431L48 54.8569L24.2456 68.5706" fill="#3182CE"/>
<path d="M24.2456 68.5706L48 54.8569V82.2862L24.2456 96" fill="#EBF8FF"/>
<path d="M48 82.2862V54.8569L71.7544 68.5706V96L48 82.2862Z" fill="#90CDF4"/>
<path d="M48 54.8569L71.7544 41.1431L95.5088 54.8569L71.7544 68.5706" fill="#3182CE"/>
<path d="M71.7544 68.5706L95.5088 54.8569V82.2862L71.7544 96" fill="#EBF8FF"/>
</g>
<path d="M120 74.1563V21.7926H140.966C144.818 21.7926 148.031 22.3636 150.605 23.5057C153.179 24.6477 155.114 26.233 156.409 28.2614C157.705 30.2727 158.352 32.5909 158.352 35.2159C158.352 37.2614 157.943 39.0597 157.125 40.6108C156.307 42.1449 155.182 43.4063 153.75 44.3949C152.335 45.3665 150.716 46.0568 148.892 46.4659V46.9773C150.886 47.0625 152.753 47.625 154.491 48.6648C156.247 49.7045 157.67 51.1619 158.761 53.0369C159.852 54.8949 160.398 57.1108 160.398 59.6847C160.398 62.4631 159.707 64.9432 158.327 67.125C156.963 69.2898 154.943 71.0028 152.267 72.2642C149.591 73.5256 146.293 74.1563 142.372 74.1563H120ZM131.071 65.1051H140.097C143.182 65.1051 145.432 64.517 146.847 63.3409C148.261 62.1477 148.969 60.5625 148.969 58.5852C148.969 57.1364 148.619 55.858 147.92 54.75C147.222 53.642 146.224 52.7727 144.929 52.142C143.651 51.5114 142.125 51.196 140.352 51.196H131.071V65.1051ZM131.071 43.7045H139.278C140.795 43.7045 142.142 43.4403 143.318 42.9119C144.511 42.3665 145.449 41.5994 146.131 40.6108C146.83 39.6222 147.179 38.4375 147.179 37.0568C147.179 35.1648 146.506 33.6392 145.159 32.4801C143.83 31.321 141.938 30.7415 139.483 30.7415H131.071V43.7045Z" fill="black"/>
<path d="M178.289 21.7926V74.1563H167.397V21.7926H178.289Z" fill="black"/>
<path d="M204.759 74.9233C200.787 74.9233 197.352 74.0795 194.455 72.392C191.574 70.6875 189.349 68.3182 187.781 65.2841C186.213 62.233 185.429 58.696 185.429 54.6733C185.429 50.6165 186.213 47.071 187.781 44.0369C189.349 40.9858 191.574 38.6165 194.455 36.929C197.352 35.2244 200.787 34.3722 204.759 34.3722C208.73 34.3722 212.156 35.2244 215.037 36.929C217.935 38.6165 220.168 40.9858 221.736 44.0369C223.304 47.071 224.088 50.6165 224.088 54.6733C224.088 58.696 223.304 62.233 221.736 65.2841C220.168 68.3182 217.935 70.6875 215.037 72.392C212.156 74.0795 208.73 74.9233 204.759 74.9233ZM204.81 66.4858C206.616 66.4858 208.125 65.9744 209.335 64.9517C210.545 63.9119 211.457 62.4972 212.071 60.7074C212.702 58.9176 213.017 56.8807 213.017 54.5966C213.017 52.3125 212.702 50.2756 212.071 48.4858C211.457 46.696 210.545 45.2813 209.335 44.2415C208.125 43.2017 206.616 42.6818 204.81 42.6818C202.986 42.6818 201.452 43.2017 200.207 44.2415C198.98 45.2813 198.051 46.696 197.42 48.4858C196.807 50.2756 196.5 52.3125 196.5 54.5966C196.5 56.8807 196.807 58.9176 197.42 60.7074C198.051 62.4972 198.98 63.9119 200.207 64.9517C201.452 65.9744 202.986 66.4858 204.81 66.4858Z" fill="black"/>
<path d="M248.915 74.9233C244.892 74.9233 241.432 74.071 238.534 72.3665C235.653 70.6449 233.437 68.2585 231.886 65.2074C230.352 62.1563 229.585 58.6449 229.585 54.6733C229.585 50.6506 230.361 47.1222 231.912 44.0881C233.48 41.0369 235.705 38.6591 238.585 36.9545C241.466 35.233 244.892 34.3722 248.864 34.3722C252.29 34.3722 255.29 34.9943 257.864 36.2386C260.437 37.483 262.474 39.2301 263.974 41.4801C265.474 43.7301 266.301 46.3722 266.455 49.4063H256.176C255.886 47.446 255.119 45.8693 253.875 44.6761C252.648 43.4659 251.037 42.8608 249.043 42.8608C247.355 42.8608 245.881 43.321 244.619 44.2415C243.375 45.1449 242.403 46.4659 241.705 48.2045C241.006 49.9432 240.656 52.0483 240.656 54.5199C240.656 57.0256 240.997 59.1563 241.679 60.9119C242.378 62.6676 243.358 64.0057 244.619 64.9261C245.881 65.8466 247.355 66.3068 249.043 66.3068C250.287 66.3068 251.403 66.0511 252.392 65.5398C253.398 65.0284 254.224 64.2869 254.872 63.3153C255.537 62.3267 255.972 61.142 256.176 59.7614H266.455C266.284 62.7614 265.466 65.4034 264 67.6875C262.551 69.9545 260.548 71.7273 257.991 73.0057C255.435 74.2841 252.409 74.9233 248.915 74.9233Z" fill="black"/>
<path d="M283.298 62.8551L283.323 49.7898H284.908L297.488 34.8835H309.991L293.09 54.6222H290.508L283.298 62.8551ZM273.428 74.1563V21.7926H284.32V74.1563H273.428ZM297.974 74.1563L286.417 57.0511L293.678 49.3551L310.732 74.1563H297.974Z" fill="black"/>
<path d="M361.741 40.125H350.542C350.337 38.6761 349.92 37.3892 349.289 36.2642C348.658 35.1222 347.849 34.1506 346.86 33.3494C345.871 32.5483 344.729 31.9347 343.434 31.5085C342.156 31.0824 340.766 30.8693 339.266 30.8693C336.556 30.8693 334.195 31.5426 332.184 32.8892C330.173 34.2188 328.613 36.1619 327.505 38.7188C326.397 41.2585 325.843 44.3438 325.843 47.9744C325.843 51.7074 326.397 54.8438 327.505 57.3835C328.63 59.9233 330.198 61.8409 332.21 63.1364C334.221 64.4318 336.548 65.0795 339.19 65.0795C340.673 65.0795 342.045 64.8835 343.306 64.4915C344.585 64.0994 345.718 63.5284 346.707 62.7784C347.695 62.0114 348.513 61.0824 349.161 59.9915C349.826 58.9006 350.286 57.6563 350.542 56.2585L361.741 56.3097C361.451 58.7131 360.727 61.0313 359.567 63.2642C358.425 65.4801 356.883 67.4659 354.94 69.2216C353.013 70.9602 350.712 72.3409 348.036 73.3636C345.377 74.3693 342.369 74.8722 339.011 74.8722C334.34 74.8722 330.164 73.8153 326.482 71.7017C322.817 69.5881 319.92 66.5284 317.789 62.5227C315.675 58.517 314.619 53.6676 314.619 47.9744C314.619 42.2642 315.692 37.4063 317.84 33.4006C319.988 29.3949 322.903 26.3438 326.585 24.2472C330.266 22.1335 334.408 21.0767 339.011 21.0767C342.045 21.0767 344.857 21.5028 347.448 22.3551C350.056 23.2074 352.366 24.4517 354.377 26.0881C356.388 27.7074 358.025 29.6932 359.286 32.0455C360.565 34.3977 361.383 37.0909 361.741 40.125Z" fill="black"/>
<path d="M369.68 21.7926H383.333L397.754 56.9744H398.367L412.788 21.7926H426.441V74.1563H415.702V40.0739H415.268L401.717 73.9006H394.404L380.853 39.946H380.418V74.1563H369.68V21.7926Z" fill="black"/>
<path d="M463.969 36.8523C463.764 34.7898 462.886 33.1875 461.335 32.0455C459.784 30.9034 457.679 30.3324 455.02 30.3324C453.213 30.3324 451.687 30.5881 450.443 31.0994C449.199 31.5938 448.244 32.2841 447.58 33.1705C446.932 34.0568 446.608 35.0625 446.608 36.1875C446.574 37.125 446.77 37.9432 447.196 38.642C447.639 39.3409 448.244 39.946 449.011 40.4574C449.778 40.9517 450.665 41.3864 451.67 41.7614C452.676 42.1193 453.75 42.4261 454.892 42.6818L459.597 43.8068C461.881 44.3182 463.977 45 465.886 45.8523C467.795 46.7045 469.449 47.7528 470.847 48.9972C472.244 50.2415 473.327 51.7074 474.094 53.3949C474.878 55.0824 475.278 57.017 475.295 59.1989C475.278 62.4034 474.46 65.1818 472.841 67.5341C471.239 69.8693 468.92 71.6847 465.886 72.9801C462.869 74.2585 459.23 74.8977 454.969 74.8977C450.741 74.8977 447.06 74.25 443.923 72.9545C440.804 71.6591 438.366 69.7415 436.611 67.2017C434.872 64.6449 433.96 61.483 433.875 57.7159H444.588C444.707 59.4716 445.21 60.9375 446.097 62.1136C447 63.2727 448.202 64.1506 449.702 64.7472C451.219 65.3267 452.932 65.6165 454.841 65.6165C456.716 65.6165 458.344 65.3438 459.724 64.7983C461.122 64.2528 462.205 63.4943 462.972 62.5227C463.739 61.5511 464.122 60.4347 464.122 59.1733C464.122 57.9972 463.773 57.0085 463.074 56.2074C462.392 55.4063 461.386 54.7244 460.057 54.1619C458.744 53.5994 457.134 53.0881 455.224 52.6278L449.523 51.196C445.108 50.1222 441.622 48.4432 439.065 46.1591C436.509 43.875 435.239 40.7983 435.256 36.929C435.239 33.7585 436.082 30.9886 437.787 28.6193C439.509 26.25 441.869 24.4006 444.869 23.071C447.869 21.7415 451.278 21.0767 455.097 21.0767C458.983 21.0767 462.375 21.7415 465.273 23.071C468.188 24.4006 470.455 26.25 472.074 28.6193C473.693 30.9886 474.528 33.733 474.58 36.8523H463.969Z" fill="black"/>
<defs>
<clipPath id="clip0_224_335">
<rect width="96" height="96" fill="white"/>
</clipPath>
</defs>
</svg>
