<svg width="48" height="48" viewBox="0 0 48 48" fill="none" xmlns="http://www.w3.org/2000/svg">
<rect width="48" height="48" rx="4" fill="#E9D8FD"/>
<g clip-path="url(#clip0_281_510)">
<path d="M13.5824 27.2175C12.6974 27.2175 11.9736 27.9413 11.9736 28.8263C11.9736 29.2575 12.1424 29.6588 12.4461 29.9625C12.7499 30.2663 13.1549 30.435 13.5824 30.435H24.6636C24.4799 29.9325 24.3711 29.3925 24.3711 28.8263C24.3711 28.26 24.4799 27.72 24.6636 27.2175H13.5824Z" fill="black"/>
<path d="M29.0251 24.7837C26.7976 24.7837 24.9863 26.5949 24.9863 28.8224C24.9863 31.0499 26.7976 32.8612 29.0251 32.8612C31.2563 32.8612 33.0676 31.0499 33.0676 28.8224C33.0676 26.5949 31.2563 24.7837 29.0251 24.7837ZM31.1251 30.5624C31.2226 30.6637 31.2226 30.8212 31.1251 30.9187C31.0763 30.9674 31.0088 30.9899 30.9488 30.9899C30.8813 30.9899 30.8176 30.9674 30.7688 30.9187L29.0288 29.1787L27.2851 30.9187C27.2363 30.9674 27.1726 30.9899 27.1051 30.9899C27.0451 30.9899 26.9776 30.9674 26.9288 30.9187C26.8313 30.8174 26.8313 30.6599 26.9288 30.5624L28.6688 28.8224L26.9288 27.0787C26.8313 26.9812 26.8313 26.8199 26.9288 26.7224C27.0301 26.6249 27.1913 26.6249 27.2851 26.7224L29.0288 28.4662L30.7688 26.7224C30.8663 26.6249 31.0276 26.6249 31.1251 26.7224C31.2226 26.8237 31.2226 26.9849 31.1251 27.0787L29.3851 28.8224L31.1251 30.5624Z" fill="#4A5568"/>
<path d="M34.3689 27.2175H33.3901C33.5739 27.7163 33.6826 28.26 33.6826 28.8263C33.6826 29.3925 33.5739 29.9288 33.3901 30.435H34.3689C35.2539 30.435 35.9776 29.7113 35.9776 28.8263C35.9776 28.395 35.8089 27.9938 35.5051 27.69C35.2014 27.3863 34.7964 27.2175 34.3689 27.2175Z" fill="black"/>
<path d="M20.3327 23.2237C22.5602 23.2237 24.3714 21.4125 24.3714 19.185C24.3714 16.9575 22.5602 15.1462 20.3327 15.1462C18.1052 15.1462 16.2939 16.9575 16.2939 19.185C16.2977 21.4125 18.1089 23.2237 20.3327 23.2237ZM17.8014 18.9C17.9064 18.795 18.0789 18.795 18.1839 18.8962L19.5527 20.2462L22.4814 17.325C22.5864 17.2162 22.7589 17.2162 22.8639 17.325C22.9689 17.43 22.9689 17.6025 22.8639 17.7075L19.7477 20.8237C19.6914 20.8762 19.6202 20.9025 19.5527 20.9025C19.4852 20.9025 19.4139 20.8762 19.3614 20.8237L17.8014 19.2825C17.7002 19.1775 17.6964 19.0087 17.8014 18.9Z" fill="#4A5568"/>
<path d="M13.5824 20.7938H15.9711C15.7874 20.295 15.6786 19.7513 15.6786 19.185C15.6786 18.6188 15.7874 18.0825 15.9711 17.5763H13.5824C12.6974 17.5763 11.9736 18.3 11.9736 19.185C11.9736 19.6125 12.1424 20.0175 12.4461 20.3213C12.7536 20.625 13.1586 20.7938 13.5824 20.7938ZM34.3686 20.7938C35.2536 20.7938 35.9774 20.07 35.9774 19.185C35.9774 18.7538 35.8086 18.3525 35.5049 18.0488C35.2011 17.745 34.7961 17.5763 34.3686 17.5763H24.6974C24.8849 18.0788 24.9899 18.6188 24.9899 19.185C24.9899 19.7513 24.8849 20.2913 24.6974 20.7938H34.3686Z" fill="black"/>
</g>
<defs>
<clipPath id="clip0_281_510">
<rect width="24" height="24" fill="white" transform="translate(12 12)"/>
</clipPath>
</defs>
</svg>
