<svg width="48" height="48" viewBox="0 0 48 48" fill="none" xmlns="http://www.w3.org/2000/svg">
<rect width="48" height="48" rx="4" fill="#C6F6D5"/>
<path d="M16.5714 16.0888C16.5714 15.6232 16.4647 15.2515 16.2514 14.9736C16.038 14.6958 15.7332 14.5579 15.337 14.56C14.9434 14.56 14.6394 14.6987 14.425 14.976C14.2106 15.2534 14.1039 15.6251 14.105 16.0912C14.105 16.5574 14.2116 16.9291 14.425 17.2064C14.6383 17.4838 14.9423 17.6224 15.337 17.6224C15.7295 17.6224 16.0335 17.4838 16.249 17.2064C16.4644 16.9291 16.5719 16.5566 16.5714 16.0888ZM15.337 16.8088C15.0703 16.8088 14.937 16.5688 14.937 16.0888C14.937 15.6088 15.0703 15.3688 15.337 15.3688C15.6036 15.3688 15.737 15.6088 15.737 16.0888C15.737 16.5688 15.6036 16.8088 15.337 16.8088ZM18.885 17.204C19.0983 16.9267 19.205 16.555 19.205 16.0888C19.205 15.6227 19.0983 15.251 18.885 14.9736C18.6684 14.6979 18.3644 14.56 17.973 14.56C17.5815 14.56 17.2772 14.6987 17.0602 14.976C16.8468 15.2534 16.7402 15.6251 16.7402 16.0912C16.7402 16.5574 16.8468 16.9291 17.0602 17.2064C17.2735 17.4838 17.5778 17.6224 17.973 17.6224C18.3682 17.6224 18.6722 17.483 18.885 17.204ZM17.973 16.8088C17.7063 16.8088 17.573 16.5688 17.573 16.0888C17.573 15.6088 17.7063 15.3688 17.973 15.3688C18.2396 15.3688 18.373 15.6088 18.373 16.0888C18.373 16.5688 18.2396 16.8088 17.973 16.8088ZM21.6058 17.204C21.8191 16.9267 21.9258 16.555 21.9258 16.0888C21.9258 15.6227 21.8191 15.251 21.6058 14.9736C21.3924 14.6968 21.0884 14.5582 20.6938 14.5576C20.2991 14.5571 19.9951 14.6958 19.7818 14.9736C19.5684 15.251 19.4618 15.6227 19.4618 16.0888C19.4618 16.555 19.5684 16.9267 19.7818 17.204C19.9951 17.4814 20.2991 17.62 20.6938 17.62C21.0884 17.62 21.3924 17.4814 21.6058 17.204ZM20.6938 16.8088C20.4271 16.8088 20.2938 16.5688 20.2938 16.0888C20.2938 15.6088 20.4271 15.3688 20.6938 15.3688C20.9604 15.3688 21.0938 15.6088 21.0938 16.0888C21.0938 16.5688 20.9604 16.8088 20.6938 16.8088ZM22.4658 15.568C22.4998 15.5599 22.5353 15.5597 22.5695 15.5672C22.6037 15.5748 22.6357 15.59 22.6632 15.6117C22.6907 15.6334 22.7129 15.661 22.7281 15.6925C22.7434 15.724 22.7514 15.7586 22.7514 15.7936V17.3216C22.7514 17.3831 22.7758 17.4422 22.8193 17.4857C22.8628 17.5292 22.9218 17.5536 22.9834 17.5536H23.3602C23.4217 17.5536 23.4807 17.5292 23.5242 17.4857C23.5677 17.4422 23.5922 17.3831 23.5922 17.3216V14.856C23.5922 14.8256 23.5862 14.7955 23.5745 14.7674C23.5628 14.7393 23.5457 14.7137 23.5242 14.6923C23.5026 14.6708 23.477 14.6538 23.4489 14.6422C23.4207 14.6306 23.3906 14.6247 23.3602 14.6248H22.9202C22.8929 14.6244 22.8658 14.629 22.8402 14.6384L22.2562 14.8488C22.2013 14.8688 22.156 14.9087 22.1292 14.9606C22.1023 15.0124 22.096 15.0725 22.1114 15.1288L22.1874 15.404C22.2032 15.4623 22.2411 15.5121 22.2932 15.5427C22.3452 15.5734 22.4071 15.5824 22.4658 15.568ZM26.4802 16.0888C26.4802 15.6232 26.3735 15.2515 26.1602 14.9736C25.9468 14.6958 25.6418 14.5579 25.245 14.56C24.8514 14.56 24.5474 14.6987 24.333 14.976C24.1186 15.2534 24.0119 15.6251 24.013 16.0912C24.013 16.5574 24.1196 16.9291 24.333 17.2064C24.5463 17.4838 24.8503 17.6224 25.245 17.6224C25.6386 17.6224 25.9426 17.4838 26.157 17.2064C26.3714 16.9291 26.4791 16.5566 26.4802 16.0888ZM25.2458 16.8088C24.9791 16.8088 24.8458 16.5688 24.8458 16.0888C24.8458 15.6088 24.9791 15.3688 25.2458 15.3688C25.5124 15.3688 25.6458 15.6088 25.6458 16.0888C25.6458 16.5688 25.5122 16.8088 25.245 16.8088H25.2458ZM27.9658 17.62C28.3594 17.62 28.6636 17.4814 28.8786 17.204C29.0935 16.9267 29.2002 16.555 29.1986 16.0888C29.1986 15.6232 29.0919 15.2515 28.8786 14.9736C28.6652 14.6958 28.361 14.5579 27.9658 14.56C27.5727 14.56 27.2687 14.6987 27.0538 14.976C26.8388 15.2534 26.7322 15.6251 26.7338 16.0912C26.7338 16.5574 26.8404 16.9291 27.0538 17.2064C27.2671 17.4838 27.5711 17.6216 27.9658 17.62ZM27.9658 15.3696C28.2324 15.3696 28.3658 15.6096 28.3658 16.0896C28.3658 16.5696 28.2324 16.8096 27.9658 16.8096C27.6991 16.8096 27.5658 16.5696 27.5658 16.0896C27.5658 15.6096 27.6991 15.3696 27.9658 15.3696ZM29.3842 15.1288L29.4602 15.404C29.476 15.4621 29.5138 15.5118 29.5657 15.5424C29.6175 15.573 29.6793 15.5822 29.7378 15.568C29.7719 15.5599 29.8074 15.5597 29.8416 15.5672C29.8758 15.5748 29.9079 15.59 29.9354 15.6117C29.963 15.6334 29.9852 15.661 30.0006 15.6925C30.016 15.724 30.024 15.7586 30.0242 15.7936V17.3216C30.0241 17.352 30.03 17.3822 30.0415 17.4103C30.0531 17.4385 30.0701 17.4641 30.0916 17.4856C30.1131 17.5072 30.1386 17.5243 30.1667 17.5359C30.1948 17.5476 30.2249 17.5536 30.2554 17.5536H30.629C30.6905 17.5536 30.7495 17.5292 30.793 17.4857C30.8365 17.4422 30.861 17.3831 30.861 17.3216V14.856C30.861 14.8256 30.855 14.7955 30.8433 14.7674C30.8316 14.7393 30.8145 14.7137 30.793 14.6923C30.7714 14.6708 30.7458 14.6538 30.7177 14.6422C30.6895 14.6306 30.6594 14.6247 30.629 14.6248H30.1922C30.1649 14.6243 30.1378 14.6289 30.1122 14.6384L29.5282 14.8488C29.4734 14.8688 29.4281 14.9088 29.4014 14.9607C29.3747 15.0125 29.3686 15.0726 29.3842 15.1288ZM32.8586 14.56C32.465 14.56 32.1607 14.6987 31.9458 14.976C31.7308 15.2534 31.6242 15.6251 31.6258 16.0912C31.6258 16.5574 31.7324 16.9291 31.9458 17.2064C32.1591 17.4838 32.4634 17.6224 32.8586 17.6224C33.2511 17.6224 33.5551 17.4838 33.7706 17.2064C33.986 16.9291 34.0927 16.5574 34.0906 16.0912C34.0906 15.6256 33.9839 15.2539 33.7706 14.976C33.5572 14.6982 33.2532 14.5595 32.8586 14.56ZM32.8586 16.8112C32.5919 16.8112 32.4586 16.5712 32.4586 16.0912C32.4586 15.6112 32.5919 15.3712 32.8586 15.3712C33.1252 15.3712 33.2586 15.6112 33.2586 16.0912C33.2586 16.5712 33.1252 16.8104 32.8586 16.8088V16.8112ZM14.7202 19.7704V21.2968C14.7202 21.3586 14.7447 21.4178 14.7884 21.4614C14.832 21.5051 14.8912 21.5296 14.953 21.5296H15.3242C15.3859 21.5296 15.4451 21.5051 15.4888 21.4614C15.5324 21.4178 15.557 21.3586 15.557 21.2968V18.8336C15.557 18.7719 15.5324 18.7127 15.4888 18.669C15.4451 18.6253 15.3859 18.6008 15.3242 18.6008H14.8802C14.8529 18.6008 14.8259 18.6054 14.8002 18.6144L14.217 18.8248C14.1633 18.8462 14.1195 18.8868 14.0942 18.9387C14.0689 18.9907 14.0639 19.0502 14.0802 19.1056L14.1554 19.3792C14.1714 19.4376 14.2094 19.4874 14.2616 19.5182C14.3137 19.549 14.3757 19.5582 14.4346 19.544C14.4687 19.5361 14.5042 19.5359 14.5383 19.5436C14.5725 19.5513 14.6045 19.5666 14.632 19.5883C14.6594 19.6101 14.6816 19.6378 14.6969 19.6693C14.7122 19.7008 14.7201 19.7354 14.7202 19.7704ZM18.0714 21.18C18.2847 20.9027 18.3914 20.531 18.3914 20.0648C18.3914 19.5987 18.2847 19.2272 18.0714 18.9504C17.858 18.6731 17.554 18.5342 17.1594 18.5336C16.7647 18.5331 16.4607 18.672 16.2474 18.9504C16.034 19.2278 15.9274 19.5992 15.9274 20.0648C15.9274 20.5304 16.034 20.9022 16.2474 21.18C16.4607 21.4574 16.7647 21.5963 17.1594 21.5968C17.554 21.5974 17.858 21.4584 18.0714 21.18ZM16.7618 20.0648C16.7618 19.5848 16.8951 19.3448 17.1618 19.3448C17.4284 19.3448 17.5618 19.5848 17.5618 20.0648C17.5618 20.5448 17.4284 20.7848 17.1618 20.7848C16.8951 20.7848 16.7618 20.5448 16.7618 20.0648ZM19.9202 21.2968V18.8336C19.9202 18.7719 19.8956 18.7127 19.852 18.669C19.8083 18.6253 19.7491 18.6008 19.6874 18.6008H19.2514C19.2241 18.6008 19.1971 18.6054 19.1714 18.6144L18.5882 18.8248C18.533 18.8447 18.4874 18.8846 18.4604 18.9367C18.4334 18.9888 18.427 19.0491 18.4426 19.1056L18.5178 19.3792C18.5337 19.4383 18.5723 19.4887 18.6252 19.5195C18.678 19.5504 18.7409 19.5592 18.8002 19.544C18.8344 19.5358 18.87 19.5354 18.9044 19.543C18.9388 19.5505 18.971 19.5658 18.9987 19.5875C19.0263 19.6093 19.0487 19.6371 19.064 19.6688C19.0794 19.7005 19.0874 19.7352 19.0874 19.7704V21.2968C19.0874 21.3586 19.1119 21.4178 19.1556 21.4614C19.1992 21.5051 19.2584 21.5296 19.3202 21.5296H19.6914C19.7524 21.5286 19.8106 21.5036 19.8534 21.46C19.8962 21.4165 19.9202 21.3579 19.9202 21.2968ZM22.4394 21.18C22.6527 20.9027 22.7594 20.531 22.7594 20.0648C22.7594 19.5987 22.6527 19.2272 22.4394 18.9504C22.226 18.6731 21.9218 18.5342 21.5266 18.5336C21.1314 18.5331 20.8274 18.672 20.6146 18.9504C20.4012 19.2278 20.2946 19.5992 20.2946 20.0648C20.2946 20.5304 20.4012 20.9022 20.6146 21.18C20.8279 21.4574 21.1319 21.5963 21.5266 21.5968C21.9212 21.5974 22.2255 21.4584 22.4394 21.18ZM21.5266 20.7848C21.2599 20.7848 21.1266 20.5448 21.1266 20.0648C21.1266 19.5848 21.2599 19.3448 21.5266 19.3448C21.7932 19.3448 21.9266 19.5848 21.9266 20.0648C21.9266 20.5448 21.7932 20.7848 21.5266 20.7848ZM24.2842 21.6C24.6778 21.6 24.9818 21.4611 25.1962 21.1832C25.4106 20.9054 25.5172 20.5336 25.5162 20.068C25.5162 19.6024 25.4095 19.231 25.1962 18.9536C24.9828 18.6763 24.6788 18.5374 24.2842 18.5368C23.8906 18.5368 23.5866 18.6758 23.3722 18.9536C23.1578 19.2315 23.0511 19.603 23.0522 20.068C23.0522 20.5347 23.1588 20.9064 23.3722 21.1832C23.5855 21.46 23.8895 21.599 24.2842 21.6ZM24.2842 19.3488C24.5508 19.3488 24.6842 19.5888 24.6842 20.0688C24.6842 20.5488 24.5508 20.7888 24.2842 20.7888C24.0175 20.7888 23.8842 20.5488 23.8842 20.0688C23.8842 19.5888 24.0175 19.3478 24.2842 19.3456V19.3488ZM26.4658 19.7704V21.2968C26.4658 21.3586 26.4903 21.4178 26.534 21.4614C26.5776 21.5051 26.6368 21.5296 26.6986 21.5296H27.0698C27.1315 21.5296 27.1907 21.5051 27.2344 21.4614C27.278 21.4178 27.3026 21.3586 27.3026 21.2968V18.8336C27.3026 18.7719 27.278 18.7127 27.2344 18.669C27.1907 18.6253 27.1315 18.6008 27.0698 18.6008H26.6322C26.6049 18.6008 26.5779 18.6054 26.5522 18.6144L25.969 18.8248C25.9138 18.8447 25.8682 18.8846 25.8412 18.9367C25.8142 18.9888 25.8078 19.0491 25.8234 19.1056L25.8986 19.3792C25.9146 19.4376 25.9526 19.4874 26.0048 19.5182C26.0569 19.549 26.1189 19.5582 26.1778 19.544C26.2121 19.5357 26.2478 19.5352 26.2823 19.5427C26.3168 19.5501 26.3491 19.5654 26.3768 19.5872C26.4046 19.609 26.427 19.6368 26.4424 19.6685C26.4578 19.7003 26.4658 19.7351 26.4658 19.7704ZM29.021 18.6008H28.5834C28.5561 18.6008 28.5291 18.6054 28.5034 18.6144L27.9202 18.8248C27.865 18.8447 27.8194 18.8846 27.7924 18.9367C27.7654 18.9888 27.759 19.0491 27.7746 19.1056L27.8498 19.3792C27.8658 19.4376 27.9038 19.4874 27.956 19.5182C28.0081 19.549 28.0701 19.5582 28.129 19.544C28.1632 19.5358 28.1988 19.5354 28.2332 19.543C28.2676 19.5505 28.2998 19.5658 28.3275 19.5875C28.3551 19.6093 28.3775 19.6371 28.3928 19.6688C28.4082 19.7005 28.4162 19.7352 28.4162 19.7704V21.2968C28.4162 21.3586 28.4407 21.4178 28.4844 21.4614C28.528 21.5051 28.5872 21.5296 28.649 21.5296H29.0202C29.0819 21.5296 29.1411 21.5051 29.1848 21.4614C29.2284 21.4178 29.253 21.3586 29.253 21.2968V18.8336C29.253 18.772 29.2286 18.7129 29.1851 18.6693C29.1416 18.6257 29.0826 18.601 29.021 18.6008ZM33.6098 18.6008H33.1722C33.1449 18.6008 33.1179 18.6054 33.0922 18.6144L32.509 18.8248C32.4538 18.8447 32.4082 18.8846 32.3812 18.9367C32.3542 18.9888 32.3478 19.0491 32.3634 19.1056L32.4394 19.3792C32.455 19.4382 32.4932 19.4886 32.5458 19.5194C32.5984 19.5503 32.6611 19.5591 32.7202 19.544C32.7544 19.5358 32.79 19.5354 32.8244 19.543C32.8588 19.5505 32.891 19.5658 32.9187 19.5875C32.9463 19.6093 32.9687 19.6371 32.984 19.6688C32.9994 19.7005 33.0074 19.7352 33.0074 19.7704V21.2968C33.0074 21.3586 33.0319 21.4178 33.0756 21.4614C33.1192 21.5051 33.1784 21.5296 33.2402 21.5296H33.6114C33.6731 21.5296 33.7323 21.5051 33.776 21.4614C33.8196 21.4178 33.8442 21.3586 33.8442 21.2968V18.8336C33.8442 18.8029 33.8381 18.7725 33.8263 18.7442C33.8145 18.7158 33.7972 18.6901 33.7754 18.6684C33.7536 18.6468 33.7278 18.6297 33.6993 18.6181C33.6709 18.6065 33.6405 18.6006 33.6098 18.6008ZM30.0706 18.9504C29.8572 19.2278 29.7506 19.5992 29.7506 20.0648C29.7506 20.5304 29.8572 20.9022 30.0706 21.18C30.2839 21.4574 30.5879 21.5963 30.9826 21.5968C31.3772 21.5974 31.6812 21.4584 31.8946 21.18C32.1079 20.9027 32.2146 20.531 32.2146 20.0648C32.2146 19.5987 32.1079 19.2272 31.8946 18.9504C31.6812 18.6731 31.3772 18.5342 30.9826 18.5336C30.5879 18.5331 30.2839 18.672 30.0706 18.9504ZM30.9826 19.3456C31.2492 19.3456 31.3826 19.5856 31.3826 20.0656C31.3826 20.5456 31.2492 20.7856 30.9826 20.7856C30.7159 20.7856 30.5826 20.5456 30.5826 20.0656C30.5826 19.5856 30.7159 19.3456 30.9826 19.3456ZM16.5714 24.124C16.5714 23.6584 16.4647 23.2867 16.2514 23.0088C16.038 22.731 15.734 22.5923 15.3394 22.5928C14.9458 22.5928 14.6418 22.7315 14.4274 23.0088C14.213 23.2862 14.1063 23.6579 14.1074 24.124C14.1074 24.5896 14.214 24.9614 14.4274 25.2392C14.6407 25.5171 14.9447 25.6558 15.3394 25.6552C15.7319 25.6552 16.0359 25.5166 16.2514 25.2392C16.4668 24.9619 16.5735 24.5902 16.5714 24.124ZM15.337 24.844C15.0703 24.844 14.937 24.604 14.937 24.124C14.937 23.644 15.0703 23.404 15.337 23.404C15.6036 23.404 15.737 23.644 15.737 24.124C15.737 24.604 15.6036 24.844 15.337 24.844ZM18.1434 22.5928C17.7498 22.5928 17.4458 22.7315 17.2314 23.0088C17.017 23.2862 16.9103 23.6579 16.9114 24.124C16.9114 24.5896 17.018 24.9614 17.2314 25.2392C17.4447 25.5171 17.7487 25.6558 18.1434 25.6552C18.5359 25.6552 18.8399 25.5166 19.0554 25.2392C19.2708 24.9619 19.3775 24.5902 19.3754 24.124C19.3754 23.6584 19.2687 23.2867 19.0554 23.0088C18.842 22.731 18.538 22.5923 18.1434 22.5928ZM18.1434 24.844C17.8767 24.844 17.7434 24.604 17.7434 24.124C17.7434 23.644 17.8767 23.404 18.1434 23.404C18.41 23.404 18.5434 23.644 18.5434 24.124C18.5434 24.604 18.41 24.844 18.1434 24.844ZM19.9522 23.0088C19.7388 23.2862 19.6322 23.6579 19.6322 24.124C19.6322 24.5902 19.7388 24.9619 19.9522 25.2392C20.1655 25.5166 20.4695 25.6552 20.8642 25.6552C21.2588 25.6552 21.5628 25.5166 21.7762 25.2392C21.9895 24.9619 22.0962 24.5902 22.0962 24.124C22.0962 23.6579 21.9895 23.2862 21.7762 23.0088C21.5628 22.731 21.2588 22.5923 20.8642 22.5928C20.4695 22.5934 20.1655 22.732 19.9522 23.0088ZM20.8642 23.4048C21.1308 23.4048 21.2642 23.6448 21.2642 24.1248C21.2642 24.6048 21.1308 24.8448 20.8642 24.8448C20.5975 24.8448 20.4642 24.6048 20.4642 24.1248C20.4642 23.6448 20.5975 23.4048 20.8642 23.4048ZM23.7602 25.3552V22.8928C23.7602 22.8311 23.7356 22.7719 23.692 22.7282C23.6483 22.6845 23.5891 22.66 23.5274 22.66H23.0898C23.0625 22.6596 23.0354 22.6642 23.0098 22.6736L22.4266 22.884C22.3714 22.9039 22.3258 22.9438 22.2988 22.9959C22.2718 23.048 22.2654 23.1083 22.281 23.1648L22.357 23.4384C22.3736 23.4971 22.4126 23.5469 22.4656 23.5771C22.5185 23.6073 22.5812 23.6155 22.6402 23.6C22.6744 23.5918 22.71 23.5914 22.7444 23.599C22.7788 23.6065 22.811 23.6218 22.8387 23.6435C22.8663 23.6653 22.8887 23.6931 22.904 23.7248C22.9194 23.7565 22.9274 23.7912 22.9274 23.8264V25.352C22.9274 25.4138 22.9519 25.4731 22.9955 25.5169C23.0391 25.5607 23.0984 25.5854 23.1602 25.5856H23.5314C23.592 25.5846 23.6498 25.5599 23.6926 25.5169C23.7353 25.4739 23.7596 25.4159 23.7602 25.3552ZM25.501 22.5928C25.1074 22.5928 24.8034 22.7315 24.589 23.0088C24.3746 23.2862 24.2679 23.6579 24.269 24.124C24.269 24.5896 24.3756 24.9614 24.589 25.2392C24.8023 25.5171 25.1063 25.6558 25.501 25.6552C25.894 25.6552 26.198 25.5166 26.413 25.2392C26.6279 24.9619 26.7346 24.5902 26.733 24.124C26.733 23.6584 26.6263 23.2867 26.413 23.0088C26.1996 22.731 25.8956 22.5923 25.501 22.5928ZM25.501 24.844C25.2343 24.844 25.101 24.604 25.101 24.124C25.101 23.644 25.2343 23.404 25.501 23.404C25.7676 23.404 25.901 23.644 25.901 24.124C25.901 24.604 25.7676 24.844 25.501 24.844ZM28.2218 25.6552C28.6154 25.6552 28.9194 25.5166 29.1338 25.2392C29.3482 24.9619 29.4548 24.5902 29.4538 24.124C29.4538 23.6584 29.3471 23.2867 29.1338 23.0088C28.9204 22.731 28.6164 22.5923 28.2218 22.5928C27.8282 22.5928 27.5242 22.7315 27.3098 23.0088C27.0954 23.2862 26.9887 23.6579 26.9898 24.124C26.9898 24.5896 27.0964 24.9614 27.3098 25.2392C27.5231 25.5171 27.8271 25.6558 28.2218 25.6552ZM28.2218 23.4048C28.4884 23.4048 28.6218 23.6448 28.6218 24.1248C28.6218 24.6048 28.4884 24.8448 28.2218 24.8448C27.9551 24.8448 27.8218 24.6048 27.8218 24.1248C27.8218 23.6448 27.9551 23.4048 28.2218 23.4048ZM30.2818 23.8296V25.3552C30.2818 25.417 30.3063 25.4763 30.3499 25.5201C30.3935 25.5639 30.4528 25.5886 30.5146 25.5888H30.8858C30.9164 25.5888 30.9467 25.5828 30.975 25.571C31.0033 25.5593 31.029 25.5421 31.0507 25.5204C31.0723 25.4986 31.0894 25.4729 31.1011 25.4446C31.1127 25.4162 31.1187 25.3859 31.1186 25.3552V22.8928C31.1186 22.8311 31.094 22.7719 31.0504 22.7282C31.0067 22.6845 30.9475 22.66 30.8858 22.66H30.4482C30.4209 22.6596 30.3938 22.6642 30.3682 22.6736L29.785 22.884C29.7298 22.9039 29.6842 22.9438 29.6572 22.9959C29.6302 23.048 29.6238 23.1083 29.6394 23.1648L29.7154 23.4384C29.7314 23.4966 29.7693 23.5463 29.8213 23.5771C29.8732 23.6078 29.9351 23.6172 29.9938 23.6032C30.0281 23.5949 30.0638 23.5944 30.0983 23.6019C30.1328 23.6093 30.1651 23.6246 30.1928 23.6464C30.2206 23.6682 30.243 23.696 30.2584 23.7277C30.2738 23.7595 30.2818 23.7943 30.2818 23.8296ZM33.7706 25.2392C33.9839 24.9619 34.0906 24.5902 34.0906 24.124C34.0906 23.6579 33.9839 23.2862 33.7706 23.0088C33.5572 22.731 33.2532 22.5923 32.8586 22.5928C32.4639 22.5934 32.1596 22.732 31.9458 23.0088C31.7324 23.2862 31.6258 23.6579 31.6258 24.124C31.6258 24.5902 31.7324 24.9619 31.9458 25.2392C32.1591 25.5166 32.4634 25.6552 32.8586 25.6552C33.2538 25.6552 33.5578 25.5166 33.7706 25.2392ZM32.461 24.124C32.461 23.644 32.5943 23.404 32.861 23.404C33.1276 23.404 33.261 23.644 33.261 24.124C33.261 24.604 33.1276 24.844 32.861 24.844C32.5943 24.844 32.461 24.604 32.461 24.124ZM14.7202 27.8056V29.332C14.7202 29.3938 14.7447 29.453 14.7884 29.4966C14.832 29.5403 14.8912 29.5648 14.953 29.5648H15.3242C15.3858 29.5646 15.4449 29.54 15.4886 29.4964C15.5322 29.4528 15.5568 29.3937 15.557 29.332V26.8688C15.5559 26.8074 15.5306 26.7488 15.4865 26.7059C15.4425 26.6631 15.3832 26.6394 15.3218 26.64H14.8802C14.8529 26.64 14.8259 26.6446 14.8002 26.6536L14.217 26.864C14.1642 26.8853 14.1211 26.9253 14.0958 26.9764C14.0706 27.0274 14.065 27.0859 14.0802 27.1408L14.1554 27.4144C14.1715 27.4727 14.2097 27.5224 14.2617 27.5531C14.3138 27.5839 14.3758 27.5932 14.4346 27.5792C14.4687 27.5713 14.5042 27.5711 14.5383 27.5788C14.5725 27.5865 14.6045 27.6018 14.632 27.6235C14.6594 27.6453 14.6816 27.673 14.6969 27.7045C14.7122 27.736 14.7201 27.7706 14.7202 27.8056ZM17.4698 29.332V26.8688C17.4687 26.8078 17.4437 26.7496 17.4002 26.7068C17.3566 26.664 17.298 26.64 17.237 26.64H16.8002C16.7729 26.64 16.7459 26.6446 16.7202 26.6536L16.137 26.864C16.0817 26.8837 16.0359 26.9237 16.0089 26.9758C15.9819 27.0279 15.9756 27.0883 15.9914 27.1448L16.0666 27.4184C16.0827 27.4767 16.1209 27.5264 16.1729 27.5571C16.225 27.5879 16.287 27.5972 16.3458 27.5832C16.38 27.575 16.4156 27.5746 16.45 27.5822C16.4844 27.5897 16.5166 27.605 16.5443 27.6267C16.5719 27.6485 16.5943 27.6763 16.6096 27.708C16.625 27.7397 16.633 27.7744 16.633 27.8096V29.336C16.633 29.3978 16.6575 29.457 16.7012 29.5006C16.7448 29.5443 16.804 29.5688 16.8658 29.5688H17.237C17.2678 29.5687 17.2984 29.5625 17.3269 29.5505C17.3553 29.5385 17.3811 29.521 17.4028 29.499C17.4244 29.477 17.4415 29.4509 17.453 29.4222C17.4645 29.3936 17.4702 29.3629 17.4698 29.332ZM19.2994 29.332V26.8688C19.2983 26.8078 19.2733 26.7496 19.2298 26.7068C19.1862 26.664 19.1276 26.64 19.0666 26.64H18.629C18.6017 26.64 18.5747 26.6446 18.549 26.6536L17.9658 26.864C17.9106 26.8839 17.865 26.9238 17.838 26.9759C17.811 27.028 17.8046 27.0883 17.8202 27.1448L17.8962 27.4184C17.912 27.4767 17.9499 27.5266 18.0019 27.5573C18.0539 27.5881 18.1158 27.5974 18.1746 27.5832C18.2088 27.575 18.2444 27.5746 18.2788 27.5822C18.3132 27.5897 18.3454 27.605 18.3731 27.6267C18.4007 27.6485 18.4231 27.6763 18.4384 27.708C18.4538 27.7397 18.4618 27.7744 18.4618 27.8096V29.336C18.462 29.3977 18.4866 29.4568 18.5302 29.5004C18.5738 29.544 18.6329 29.5686 18.6946 29.5688H19.0658C19.0967 29.5689 19.1274 29.5629 19.156 29.551C19.1846 29.5391 19.2106 29.5216 19.2323 29.4995C19.2541 29.4775 19.2712 29.4513 19.2827 29.4225C19.2942 29.3938 19.2999 29.363 19.2994 29.332ZM20.8682 26.5688C20.4756 26.5688 20.1716 26.7078 19.9562 26.9856C19.7407 27.2635 19.634 27.635 19.6362 28.1C19.6362 28.5667 19.7428 28.9384 19.9562 29.2152C20.1695 29.492 20.4735 29.631 20.8682 29.632C21.2618 29.632 21.566 29.4931 21.781 29.2152C21.9959 28.9374 22.1026 28.5656 22.101 28.1C22.101 27.6344 21.9943 27.263 21.781 26.9856C21.5676 26.7083 21.2634 26.5694 20.8682 26.5688ZM20.8682 28.82C20.6015 28.82 20.4682 28.58 20.4682 28.1C20.4682 27.62 20.6015 27.38 20.8682 27.38C21.1348 27.38 21.2682 27.62 21.2682 28.1C21.2682 28.58 21.1348 28.82 20.8682 28.82ZM23.5042 29.632C23.8978 29.632 24.2018 29.4931 24.4162 29.2152C24.6306 28.9374 24.7372 28.5656 24.7362 28.1C24.7362 27.6344 24.6295 27.263 24.4162 26.9856C24.2028 26.7083 23.8988 26.5694 23.5042 26.5688C23.1111 26.5688 22.8071 26.7078 22.5922 26.9856C22.3772 27.2635 22.2706 27.635 22.2722 28.1C22.2722 28.5667 22.3788 28.9384 22.5922 29.2152C22.8055 29.492 23.1095 29.631 23.5042 29.632ZM23.5042 27.3808C23.7708 27.3808 23.9042 27.6208 23.9042 28.1008C23.9042 28.5808 23.7708 28.8208 23.5042 28.8208C23.2375 28.8208 23.1042 28.5808 23.1042 28.1008C23.1042 27.6208 23.2375 27.3808 23.5042 27.3808ZM26.3202 29.332V26.8688C26.3197 26.838 26.313 26.8075 26.3006 26.7793C26.2882 26.751 26.2704 26.7255 26.248 26.7042C26.2257 26.6829 26.1994 26.6663 26.1705 26.6553C26.1417 26.6442 26.111 26.6391 26.0802 26.64H25.6426C25.6153 26.64 25.5883 26.6446 25.5626 26.6536L24.9794 26.864C24.9242 26.8839 24.8786 26.9238 24.8516 26.9759C24.8246 27.028 24.8182 27.0883 24.8338 27.1448L24.909 27.4184C24.9251 27.4767 24.9633 27.5264 25.0153 27.5571C25.0674 27.5879 25.1294 27.5972 25.1882 27.5832C25.2224 27.575 25.258 27.5746 25.2924 27.5822C25.3268 27.5897 25.359 27.605 25.3867 27.6267C25.4143 27.6485 25.4367 27.6763 25.452 27.708C25.4674 27.7397 25.4754 27.7744 25.4754 27.8096V29.336C25.4754 29.3978 25.4999 29.457 25.5436 29.5006C25.5872 29.5443 25.6464 29.5688 25.7082 29.5688H26.0802C26.1117 29.5697 26.143 29.5642 26.1723 29.5526C26.2016 29.5411 26.2282 29.5237 26.2507 29.5016C26.2731 29.4795 26.2908 29.453 26.3027 29.4239C26.3147 29.3948 26.3206 29.3635 26.3202 29.332ZM33.8402 29.332V26.8688C33.8402 26.8071 33.8156 26.7479 33.772 26.7042C33.7283 26.6605 33.6691 26.636 33.6074 26.636H33.1698C33.1425 26.636 33.1155 26.6406 33.0898 26.6496L32.5066 26.86C32.4514 26.8799 32.4058 26.9198 32.3788 26.9719C32.3518 27.024 32.3454 27.0843 32.361 27.1408L32.437 27.4144C32.4528 27.4727 32.4907 27.5226 32.5427 27.5534C32.5947 27.5841 32.6566 27.5934 32.7154 27.5792C32.7496 27.571 32.7852 27.5706 32.8196 27.5782C32.854 27.5857 32.8862 27.601 32.9139 27.6227C32.9415 27.6445 32.9639 27.6723 32.9792 27.704C32.9946 27.7357 33.0026 27.7704 33.0026 27.8056V29.332C33.0028 29.3937 33.0274 29.4528 33.071 29.4964C33.1146 29.54 33.1737 29.5646 33.2354 29.5648H33.6066C33.6372 29.5649 33.6676 29.559 33.6959 29.5473C33.7242 29.5357 33.75 29.5185 33.7717 29.4969C33.7934 29.4753 33.8106 29.4496 33.8224 29.4213C33.8341 29.393 33.8402 29.3627 33.8402 29.332ZM27.9706 26.5688C27.577 26.5688 27.273 26.7078 27.0586 26.9856C26.8442 27.2635 26.7375 27.635 26.7386 28.1C26.7386 28.5667 26.8452 28.9384 27.0586 29.2152C27.2719 29.492 27.5759 29.631 27.9706 29.632C28.3636 29.632 28.6676 29.4931 28.8826 29.2152C29.0975 28.9374 29.2042 28.5656 29.2026 28.1C29.2026 27.6344 29.0959 27.263 28.8826 26.9856C28.6692 26.7083 28.3652 26.5694 27.9706 26.5688ZM27.9706 28.82C27.7039 28.82 27.5706 28.58 27.5706 28.1C27.5706 27.62 27.7039 27.38 27.9706 27.38C28.2372 27.38 28.3706 27.62 28.3706 28.1C28.3706 28.58 28.2372 28.82 27.9706 28.82ZM30.777 29.632C31.1695 29.632 31.4735 29.4931 31.689 29.2152C31.9044 28.9374 32.0111 28.5656 32.009 28.1C32.009 27.6344 31.9023 27.263 31.689 26.9856C31.4756 26.7083 31.1716 26.5694 30.777 26.5688C30.3834 26.5688 30.0791 26.7078 29.8642 26.9856C29.6492 27.2635 29.5426 27.635 29.5442 28.1C29.5442 28.5667 29.6508 28.9384 29.8642 29.2152C30.0775 29.492 30.3818 29.631 30.777 29.632ZM30.777 27.3808C31.0436 27.3808 31.177 27.6208 31.177 28.1008C31.177 28.5808 31.0436 28.8208 30.777 28.8208C30.5103 28.8208 30.377 28.5808 30.377 28.1008C30.377 27.6208 30.5103 27.3808 30.777 27.3808ZM15.337 30.628C14.9434 30.628 14.6394 30.7667 14.425 31.044C14.2106 31.3214 14.1039 31.6931 14.105 32.1592C14.105 32.6259 14.2116 32.9976 14.425 33.2744C14.6383 33.5512 14.9423 33.6899 15.337 33.6904C15.7295 33.6904 16.0335 33.5518 16.249 33.2744C16.4644 32.9971 16.5711 32.6254 16.569 32.1592C16.569 31.6936 16.4623 31.3219 16.249 31.044C16.0356 30.7662 15.7316 30.6275 15.337 30.628ZM15.337 32.8792C15.0703 32.8792 14.937 32.6392 14.937 32.1592C14.937 31.6792 15.0703 31.4392 15.337 31.4392C15.6036 31.4392 15.737 31.6792 15.737 32.1592C15.737 32.6392 15.6036 32.8795 15.337 32.88V32.8792ZM18.0578 30.628C17.6652 30.628 17.3612 30.7667 17.1458 31.044C16.9303 31.3214 16.8236 31.6931 16.8258 32.1592C16.8258 32.6259 16.9324 32.9976 17.1458 33.2744C17.3591 33.5512 17.6631 33.6899 18.0578 33.6904C18.4514 33.6904 18.7554 33.5518 18.9698 33.2744C19.1842 32.9971 19.2908 32.6254 19.2898 32.1592C19.2898 31.6936 19.1831 31.3219 18.9698 31.044C18.7564 30.7662 18.4524 30.6275 18.0578 30.628ZM18.0578 32.8792C17.7911 32.8792 17.6578 32.6392 17.6578 32.1592C17.6578 31.6792 17.7911 31.4392 18.0578 31.4392C18.3244 31.4392 18.4578 31.6792 18.4578 32.1592C18.4578 32.6392 18.3244 32.8795 18.0578 32.88V32.8792ZM20.8642 30.628C20.4706 30.628 20.1666 30.7667 19.9522 31.044C19.7378 31.3214 19.6311 31.6931 19.6322 32.1592C19.6322 32.6259 19.7388 32.9976 19.9522 33.2744C20.1655 33.5512 20.4695 33.6899 20.8642 33.6904C21.2578 33.6904 21.5618 33.5518 21.7762 33.2744C21.9906 32.9971 22.0972 32.6254 22.0962 32.1592C22.0962 31.6936 21.9895 31.3219 21.7762 31.044C21.5628 30.7662 21.2588 30.6275 20.8642 30.628ZM20.8642 32.8792C20.5975 32.8792 20.4642 32.6392 20.4642 32.1592C20.4642 31.6792 20.5975 31.4392 20.8642 31.4392C21.1308 31.4392 21.2642 31.6792 21.2642 32.1592C21.2642 32.6392 21.1308 32.8795 20.8642 32.88V32.8792ZM22.2826 31.2L22.3586 31.4736C22.3746 31.5318 22.4125 31.5815 22.4645 31.6123C22.5164 31.643 22.5783 31.6524 22.637 31.6384C22.6712 31.6302 22.7068 31.6298 22.7412 31.6374C22.7756 31.6449 22.8078 31.6602 22.8355 31.6819C22.8631 31.7037 22.8855 31.7315 22.9008 31.7632C22.9162 31.7949 22.9242 31.8296 22.9242 31.8648V33.3912C22.9244 33.4529 22.949 33.512 22.9926 33.5556C23.0362 33.5992 23.0953 33.6238 23.157 33.624H23.5282C23.5899 33.624 23.6491 33.5995 23.6928 33.5558C23.7364 33.5122 23.761 33.453 23.761 33.3912V30.928C23.761 30.8663 23.7364 30.8071 23.6928 30.7634C23.6491 30.7197 23.5899 30.6952 23.5282 30.6952H23.0906C23.0633 30.6948 23.0362 30.6994 23.0106 30.7088L22.4274 30.9192C22.3723 30.9392 22.3269 30.9793 22.3 31.0313C22.2732 31.0833 22.267 31.1436 22.2826 31.2ZM25.4154 30.628C25.0218 30.628 24.7178 30.7667 24.5034 31.044C24.289 31.3214 24.1823 31.6931 24.1834 32.1592C24.1834 32.6259 24.29 32.9976 24.5034 33.2744C24.7167 33.5512 25.0207 33.6899 25.4154 33.6904C25.809 33.6904 26.113 33.5518 26.3274 33.2744C26.5418 32.9971 26.6484 32.6254 26.6474 32.1592C26.6474 31.6936 26.5407 31.3219 26.3274 31.044C26.114 30.7662 25.81 30.6275 25.4154 30.628ZM25.4154 32.8792C25.1487 32.8792 25.0154 32.6392 25.0154 32.1592C25.0154 31.6792 25.1487 31.4392 25.4154 31.4392C25.682 31.4392 25.8154 31.6792 25.8154 32.1592C25.8154 32.6392 25.682 32.8795 25.4154 32.88V32.8792ZM28.2218 30.628C27.8282 30.628 27.5242 30.7667 27.3098 31.044C27.0954 31.3214 26.9887 31.6931 26.9898 32.1592C26.9898 32.6259 27.0964 32.9976 27.3098 33.2744C27.5231 33.5512 27.8271 33.6899 28.2218 33.6904C28.6154 33.6904 28.9194 33.5518 29.1338 33.2744C29.3482 32.9971 29.4548 32.6254 29.4538 32.1592C29.4538 31.6936 29.3471 31.3219 29.1338 31.044C28.9204 30.7662 28.6164 30.6275 28.2218 30.628ZM28.2218 32.8792C27.9551 32.8792 27.8218 32.6392 27.8218 32.1592C27.8218 31.6792 27.9551 31.4392 28.2218 31.4392C28.4884 31.4392 28.6218 31.6792 28.6218 32.1592C28.6218 32.6392 28.4884 32.8795 28.2218 32.88V32.8792ZM29.6402 31.2L29.7162 31.4736C29.7322 31.5318 29.7701 31.5815 29.8221 31.6123C29.874 31.643 29.9359 31.6524 29.9946 31.6384C30.0288 31.6302 30.0644 31.6298 30.0988 31.6374C30.1332 31.6449 30.1654 31.6602 30.1931 31.6819C30.2207 31.7037 30.2431 31.7315 30.2584 31.7632C30.2738 31.7949 30.2818 31.8296 30.2818 31.8648V33.3912C30.282 33.4529 30.3066 33.512 30.3502 33.5556C30.3938 33.5992 30.4529 33.6238 30.5146 33.624H30.8858C30.9475 33.624 31.0067 33.5995 31.0504 33.5558C31.094 33.5122 31.1186 33.453 31.1186 33.3912V30.928C31.1186 30.8663 31.094 30.8071 31.0504 30.7634C31.0067 30.7197 30.9475 30.6952 30.8858 30.6952H30.4482C30.4209 30.6948 30.3938 30.6994 30.3682 30.7088L29.785 30.9192C29.7299 30.9392 29.6845 30.9793 29.6576 31.0313C29.6308 31.0833 29.6246 31.1436 29.6402 31.2ZM32.8586 30.628C32.465 30.628 32.1607 30.7667 31.9458 31.044C31.7308 31.3214 31.6242 31.6931 31.6258 32.1592C31.6258 32.6259 31.7324 32.9976 31.9458 33.2744C32.1591 33.5512 32.4634 33.6899 32.8586 33.6904C33.2511 33.6904 33.5551 33.5518 33.7706 33.2744C33.986 32.9971 34.0927 32.6254 34.0906 32.1592C34.0906 31.6936 33.9839 31.3219 33.7706 31.044C33.5572 30.7662 33.2532 30.6275 32.8586 30.628ZM32.8586 32.8792C32.5919 32.8792 32.4586 32.6392 32.4586 32.1592C32.4586 31.6792 32.5919 31.4392 32.8586 31.4392C33.1252 31.4392 33.2586 31.6792 33.2586 32.1592C33.2586 32.6392 33.1252 32.8795 32.8586 32.88V32.8792Z" fill="black"/>
</svg>
