<svg width="36" height="36" viewBox="0 0 36 36" fill="none" xmlns="http://www.w3.org/2000/svg">
<g clip-path="url(#clip0_49_384)">
<path d="M30.6 0H5.4C2.41766 0 0 2.41766 0 5.4V30.6C0 33.5823 2.41766 36 5.4 36H30.6C33.5823 36 36 33.5823 36 30.6V5.4C36 2.41766 33.5823 0 30.6 0Z" fill="#7289DA"/>
<path d="M24.3281 27.5625L22.8516 25.8047C25.7344 25.0312 26.8594 23.0625 26.8594 23.0625C23.2031 26.5078 13.2188 26.6484 9.35156 23.0625C9.35156 23.0625 10.3359 24.8906 13.2891 25.8047L11.6719 27.5625C6.75 27.4922 4.85156 24.1875 4.85156 24.1875C4.85156 16.875 8.08594 11.0391 8.08594 11.0391C11.3906 8.71875 14.4141 8.71875 14.4141 8.71875L14.625 9C10.5469 10.125 8.78906 11.9531 8.78906 11.9531C13.5703 8.71875 23.4141 9 27.2812 11.9531C27.3516 11.8828 24.9609 9.98438 21.2344 9L21.5859 8.71875C21.5859 8.71875 24.6094 8.71875 27.9141 11.0391C27.9141 11.0391 31.1484 16.875 31.1484 24.1875C31.1484 24.1875 29.25 27.4922 24.3281 27.5625Z" fill="white"/>
<path d="M13.7812 22.0781C15.0627 22.0781 16.1016 20.9763 16.1016 19.6172C16.1016 18.258 15.0627 17.1562 13.7812 17.1562C12.4998 17.1562 11.4609 18.258 11.4609 19.6172C11.4609 20.9763 12.4998 22.0781 13.7812 22.0781Z" fill="#7289DA"/>
<path d="M21.9375 22.0781C23.219 22.0781 24.2578 20.9763 24.2578 19.6172C24.2578 18.258 23.219 17.1562 21.9375 17.1562C20.656 17.1562 19.6172 18.258 19.6172 19.6172C19.6172 20.9763 20.656 22.0781 21.9375 22.0781Z" fill="#7289DA"/>
</g>
<defs>
<clipPath id="clip0_49_384">
<rect width="36" height="36" fill="white"/>
</clipPath>
</defs>
</svg>
