<svg width="36" height="36" viewBox="0 0 36 36" fill="none" xmlns="http://www.w3.org/2000/svg">
<path d="M9.23438 28.6875C9.10938 28.8281 8.95312 28.8047 8.76562 28.6172C8.5625 28.4453 8.53125 28.2969 8.67188 28.1719C8.79688 28.0312 8.95312 28.0547 9.14062 28.2422C9.32812 28.4141 9.35938 28.5625 9.23438 28.6875ZM8.25 27.2578C8.39062 27.4453 8.39062 27.5938 8.25 27.7031C8.125 27.7969 7.99219 27.7422 7.85156 27.5391C7.71094 27.3359 7.71094 27.1953 7.85156 27.1172C7.99219 27.0078 8.125 27.0547 8.25 27.2578ZM6.82031 25.8516C6.74219 25.9609 6.64062 25.9766 6.51562 25.8984C6.35938 25.8203 6.30469 25.7266 6.35156 25.6172C6.39844 25.5391 6.5 25.5234 6.65625 25.5703C6.8125 25.6484 6.86719 25.7422 6.82031 25.8516ZM7.54688 26.6484C7.45312 26.7578 7.32812 26.7344 7.17188 26.5781C7.03125 26.4062 7.01562 26.2812 7.125 26.2031C7.21875 26.1094 7.34375 26.1328 7.5 26.2734C7.64062 26.4453 7.65625 26.5703 7.54688 26.6484ZM10.5703 29.2734C10.5078 29.4609 10.3594 29.5078 10.125 29.4141C9.85938 29.3516 9.75781 29.2344 9.82031 29.0625C9.88281 28.8906 10.0312 28.8359 10.2656 28.8984C10.5156 28.9766 10.6172 29.1016 10.5703 29.2734ZM12.0469 29.3906C12.0469 29.5625 11.9219 29.6484 11.6719 29.6484C11.4062 29.6797 11.2734 29.5938 11.2734 29.3906C11.2734 29.2188 11.3984 29.1328 11.6484 29.1328C11.9141 29.1016 12.0469 29.1875 12.0469 29.3906ZM13.4062 29.1562C13.4375 29.3125 13.3281 29.4219 13.0781 29.4844C12.8281 29.5469 12.6875 29.4844 12.6562 29.2969C12.625 29.1094 12.7344 28.9922 12.9844 28.9453C13.2344 28.9141 13.375 28.9844 13.4062 29.1562ZM36 6.75V29.25C36 31.1094 35.3398 32.6992 34.0195 34.0195C32.6992 35.3398 31.1094 36 29.25 36H24C23.75 36 23.5586 35.9922 23.4258 35.9766C23.293 35.9609 23.1406 35.9219 22.9688 35.8594C22.7969 35.7969 22.6719 35.6836 22.5938 35.5195C22.5156 35.3555 22.4766 35.1406 22.4766 34.875V29.2734C22.4766 27.7578 22.0703 26.6484 21.2578 25.9453C22.1484 25.8516 22.9492 25.7109 23.6602 25.5234C24.3711 25.3359 25.1055 25.0312 25.8633 24.6094C26.6211 24.1875 27.2539 23.668 27.7617 23.0508C28.2695 22.4336 28.6836 21.6133 29.0039 20.5898C29.3242 19.5664 29.4844 18.3906 29.4844 17.0625C29.4844 15.1719 28.8672 13.5625 27.6328 12.2344C28.2109 10.8125 28.1484 9.21875 27.4453 7.45312C27.0078 7.3125 26.375 7.39844 25.5469 7.71094C24.7188 8.02344 24 8.36719 23.3906 8.74219L22.5 9.30469C21.0469 8.89844 19.5469 8.69531 18 8.69531C16.4531 8.69531 14.9531 8.89844 13.5 9.30469C13.25 9.13281 12.918 8.92188 12.5039 8.67188C12.0898 8.42188 11.4375 8.12109 10.5469 7.76953C9.65625 7.41797 8.98438 7.3125 8.53125 7.45312C7.84375 9.21875 7.78906 10.8125 8.36719 12.2344C7.13281 13.5625 6.51562 15.1719 6.51562 17.0625C6.51562 18.3906 6.67578 19.5625 6.99609 20.5781C7.31641 21.5938 7.72656 22.4141 8.22656 23.0391C8.72656 23.6641 9.35547 24.1875 10.1133 24.6094C10.8711 25.0312 11.6055 25.3359 12.3164 25.5234C13.0273 25.7109 13.8281 25.8516 14.7188 25.9453C14.0938 26.5078 13.7109 27.3125 13.5703 28.3594C13.2422 28.5156 12.8906 28.6328 12.5156 28.7109C12.1406 28.7891 11.6953 28.8281 11.1797 28.8281C10.6641 28.8281 10.1523 28.6602 9.64453 28.3242C9.13672 27.9883 8.70312 27.5 8.34375 26.8594C8.04688 26.3594 7.66797 25.9531 7.20703 25.6406C6.74609 25.3281 6.35938 25.1406 6.04688 25.0781L5.57812 25.0078C5.25 25.0078 5.02344 25.043 4.89844 25.1133C4.77344 25.1836 4.73438 25.2734 4.78125 25.3828C4.82812 25.4922 4.89844 25.6016 4.99219 25.7109C5.08594 25.8203 5.1875 25.9141 5.29688 25.9922L5.46094 26.1094C5.80469 26.2656 6.14453 26.5625 6.48047 27C6.81641 27.4375 7.0625 27.8359 7.21875 28.1953L7.45312 28.7344C7.65625 29.3281 8 29.8086 8.48438 30.1758C8.96875 30.543 9.49219 30.7773 10.0547 30.8789C10.6172 30.9805 11.1602 31.0352 11.6836 31.043C12.207 31.0508 12.6406 31.0234 12.9844 30.9609L13.5234 30.8672C13.5234 31.4609 13.5273 32.2656 13.5352 33.2812C13.543 34.2969 13.5469 34.8281 13.5469 34.875C13.5469 35.2188 13.4609 35.4805 13.2891 35.6602C13.1172 35.8398 12.9453 35.9414 12.7734 35.9648C12.6016 35.9883 12.3438 36 12 36H6.75C4.89062 36 3.30078 35.3398 1.98047 34.0195C0.660156 32.6992 0 31.1094 0 29.25V6.75C0 4.89062 0.660156 3.30078 1.98047 1.98047C3.30078 0.660156 4.89062 0 6.75 0H29.25C31.1094 0 32.6992 0.660156 34.0195 1.98047C35.3398 3.30078 36 4.89062 36 6.75Z" fill="black"/>
</svg>
