<svg width="48" height="48" viewBox="0 0 48 48" fill="none" xmlns="http://www.w3.org/2000/svg">
<rect width="48" height="48" rx="4" fill="#FED7D7"/>
<path d="M16.0001 30C15.7349 30 15.4806 29.8946 15.293 29.7071C15.1055 29.5196 15.0001 29.2652 15.0001 29V22.618L14.4471 22.894C14.3295 22.9539 14.2013 22.99 14.0697 23.0001C13.9381 23.0102 13.8058 22.9941 13.6804 22.9528C13.5551 22.9115 13.4391 22.8459 13.3393 22.7596C13.2394 22.6733 13.1576 22.5681 13.0986 22.45C13.0396 22.3319 13.0046 22.2034 12.9955 22.0717C12.9865 21.94 13.0035 21.8079 13.0458 21.6829C13.088 21.5578 13.1546 21.4424 13.2417 21.3432C13.3288 21.244 13.4346 21.1631 13.5531 21.105L15.5531 20.105C15.7056 20.0282 15.8752 19.9918 16.0457 19.9992C16.2162 20.0067 16.382 20.0577 16.5271 20.1475C16.6723 20.2373 16.792 20.3628 16.8748 20.5121C16.9576 20.6613 17.0008 20.8293 17.0001 21V29C17.0001 29.2652 16.8948 29.5196 16.7072 29.7071C16.5197 29.8946 16.2654 30 16.0001 30ZM25.0001 30H20.0001C19.8028 29.999 19.6102 29.9398 19.4464 29.8297C19.2826 29.7197 19.1549 29.5637 19.0794 29.3814C19.0039 29.1991 18.9839 28.9986 19.0219 28.8049C19.0599 28.6113 19.1543 28.4332 19.2931 28.293L23.2931 24.293C23.5471 24.039 23.6871 23.702 23.6871 23.343C23.6871 22.985 23.5471 22.648 23.2931 22.394C22.7851 21.886 21.9031 21.886 21.3931 22.395C21.2681 22.5191 21.169 22.6668 21.1015 22.8296C21.0341 22.9923 20.9996 23.1668 21.0001 23.343C21.0001 23.6082 20.8948 23.8626 20.7072 24.0501C20.5197 24.2376 20.2654 24.343 20.0001 24.343C19.7349 24.343 19.4806 24.2376 19.293 24.0501C19.1055 23.8626 19.0001 23.6082 19.0001 23.343C19.0001 22.449 19.3481 21.61 19.9801 20.979C21.2451 19.716 23.4441 19.716 24.7071 20.98C25.3391 21.611 25.6861 22.451 25.6861 23.343C25.6861 24.236 25.3381 25.076 24.7071 25.707L22.4141 28H25.0001C25.2654 28 25.5197 28.1054 25.7072 28.2929C25.8948 28.4804 26.0001 28.7348 26.0001 29C26.0001 29.2652 25.8948 29.5196 25.7072 29.7071C25.5197 29.8946 25.2654 30 25.0001 30ZM32.9551 24.377C33.3073 23.9075 33.4984 23.3369 33.5001 22.75C33.4993 22.0209 33.2094 21.3219 32.6938 20.8063C32.1782 20.2908 31.4792 20.0008 30.7501 20C30.2463 19.999 29.7519 20.137 29.3214 20.3988C28.8909 20.6607 28.541 21.0361 28.3101 21.484C28.2497 21.6006 28.2129 21.728 28.2017 21.8588C28.1905 21.9897 28.2052 22.1215 28.245 22.2466C28.2847 22.3718 28.3487 22.4879 28.4333 22.5884C28.5179 22.6888 28.6215 22.7716 28.7381 22.832C28.8548 22.8924 28.9821 22.9293 29.113 22.9404C29.2438 22.9516 29.3756 22.9369 29.5008 22.8972C29.6259 22.8574 29.7421 22.7934 29.8425 22.7088C29.9429 22.6242 30.0257 22.5206 30.0861 22.404C30.1475 22.2859 30.2393 22.1863 30.3519 22.1153C30.4646 22.0444 30.5941 22.0047 30.7271 22.0004C30.8602 21.9961 30.992 22.0272 31.109 22.0906C31.226 22.1541 31.324 22.2475 31.393 22.3614C31.462 22.4752 31.4994 22.6054 31.5015 22.7385C31.5035 22.8716 31.4701 23.0028 31.4046 23.1187C31.3392 23.2347 31.2441 23.3311 31.1291 23.3981C31.014 23.4651 30.8832 23.5003 30.7501 23.5C30.4849 23.5 30.2306 23.6054 30.043 23.7929C29.8555 23.9804 29.7501 24.2348 29.7501 24.5C29.7501 24.7652 29.8555 25.0196 30.043 25.2071C30.2306 25.3946 30.4849 25.5 30.7501 25.5C31.4391 25.5 32.0001 26.061 32.0001 26.75C32.0001 27.439 31.4391 28 30.7501 28C30.0611 28 29.5001 27.439 29.5001 26.75C29.5001 26.4848 29.3948 26.2304 29.2072 26.0429C29.0197 25.8554 28.7654 25.75 28.5001 25.75C28.2349 25.75 27.9806 25.8554 27.793 26.0429C27.6055 26.2304 27.5001 26.4848 27.5001 26.75C27.5001 28.542 28.9581 30 30.7501 30C32.5421 30 34.0001 28.542 34.0001 26.75C33.9993 26.3037 33.9061 25.8625 33.7262 25.454C33.5463 25.0456 33.2838 24.6789 32.9551 24.377Z" fill="black"/>
</svg>
