<svg width="48" height="48" viewBox="0 0 48 48" fill="none" xmlns="http://www.w3.org/2000/svg">
<rect width="48" height="48" rx="4" fill="#C4F1F9"/>
<path d="M12 24C12 22.4087 12.6321 20.8826 13.7574 19.7574C14.8826 18.6321 16.4087 18 18 18H22.5C24.0913 18 25.6174 18.6321 26.7426 19.7574C27.8679 20.8826 28.5 22.4087 28.5 24H25.5C25.5 23.2044 25.1839 22.4413 24.6213 21.8787C24.0587 21.3161 23.2956 21 22.5 21H18C17.2044 21 16.4413 21.3161 15.8787 21.8787C15.3161 22.4413 15 23.2044 15 24C15 24.7956 15.3161 25.5587 15.8787 26.1213C16.4413 26.6839 17.2044 27 18 27L19.5 30H18C16.4087 30 14.8826 29.3679 13.7574 28.2426C12.6321 27.1174 12 25.5913 12 24ZM28.5 18H30C31.5913 18 33.1174 18.6321 34.2426 19.7574C35.3679 20.8826 36 22.4087 36 24C36 25.5913 35.3679 27.1174 34.2426 28.2426C33.1174 29.3679 31.5913 30 30 30H25.5C23.9087 30 22.3826 29.3679 21.2574 28.2426C20.1321 27.1174 19.5 25.5913 19.5 24H22.5C22.5 24.7956 22.8161 25.5587 23.3787 26.1213C23.9413 26.6839 24.7044 27 25.5 27H30C30.7956 27 31.5587 26.6839 32.1213 26.1213C32.6839 25.5587 33 24.7956 33 24C33 23.2044 32.6839 22.4413 32.1213 21.8787C31.5587 21.3161 30.7956 21 30 21L28.5 18Z" fill="black"/>
</svg>
