<svg width="48" height="48" viewBox="0 0 48 48" fill="none" xmlns="http://www.w3.org/2000/svg">
<rect width="48" height="48" rx="4" fill="#BEE3F8"/>
<path d="M20 24C20 24.2652 20.1054 24.5196 20.2929 24.7071C20.4804 24.8946 20.7348 25 21 25H27C27.2652 25 27.5196 24.8946 27.7071 24.7071C27.8946 24.5196 28 24.2652 28 24C28 23.7348 27.8946 23.4804 27.7071 23.2929C27.5196 23.1054 27.2652 23 27 23H21C20.7348 23 20.4804 23.1054 20.2929 23.2929C20.1054 23.4804 20 23.7348 20 24ZM22 27H19C18.2044 27 17.4413 26.6839 16.8787 26.1213C16.3161 25.5587 16 24.7956 16 24C16 23.2044 16.3161 22.4413 16.8787 21.8787C17.4413 21.3161 18.2044 21 19 21H22C22.2652 21 22.5196 20.8946 22.7071 20.7071C22.8946 20.5196 23 20.2652 23 20C23 19.7348 22.8946 19.4804 22.7071 19.2929C22.5196 19.1054 22.2652 19 22 19H19C17.6739 19 16.4021 19.5268 15.4645 20.4645C14.5268 21.4021 14 22.6739 14 24C14 25.3261 14.5268 26.5979 15.4645 27.5355C16.4021 28.4732 17.6739 29 19 29H22C22.2652 29 22.5196 28.8946 22.7071 28.7071C22.8946 28.5196 23 28.2652 23 28C23 27.7348 22.8946 27.4804 22.7071 27.2929C22.5196 27.1054 22.2652 27 22 27ZM29 19H26C25.7348 19 25.4804 19.1054 25.2929 19.2929C25.1054 19.4804 25 19.7348 25 20C25 20.2652 25.1054 20.5196 25.2929 20.7071C25.4804 20.8946 25.7348 21 26 21H29C29.7956 21 30.5587 21.3161 31.1213 21.8787C31.6839 22.4413 32 23.2044 32 24C32 24.7956 31.6839 25.5587 31.1213 26.1213C30.5587 26.6839 29.7956 27 29 27H26C25.7348 27 25.4804 27.1054 25.2929 27.2929C25.1054 27.4804 25 27.7348 25 28C25 28.2652 25.1054 28.5196 25.2929 28.7071C25.4804 28.8946 25.7348 29 26 29H29C30.3261 29 31.5979 28.4732 32.5355 27.5355C33.4732 26.5979 34 25.3261 34 24C34 22.6739 33.4732 21.4021 32.5355 20.4645C31.5979 19.5268 30.3261 19 29 19Z" fill="black"/>
</svg>
