<svg width="48" height="48" viewBox="0 0 48 48" fill="none" xmlns="http://www.w3.org/2000/svg">
<rect width="48" height="48" rx="4" fill="#BEE3F8"/>
<path d="M29 18H19C18.7348 18 18.4804 18.1054 18.2929 18.2929C18.1054 18.4804 18 18.7348 18 19C18 19.2652 18.1054 19.5196 18.2929 19.7071C18.4804 19.8946 18.7348 20 19 20H23V29C23 29.2652 23.1054 29.5196 23.2929 29.7071C23.4804 29.8946 23.7348 30 24 30C24.2652 30 24.5196 29.8946 24.7071 29.7071C24.8946 29.5196 25 29.2652 25 29V20H29C29.2652 20 29.5196 19.8946 29.7071 19.7071C29.8946 19.5196 30 19.2652 30 19C30 18.7348 29.8946 18.4804 29.7071 18.2929C29.5196 18.1054 29.2652 18 29 18Z" fill="#1A202C"/>
</svg>
