<svg width="36" height="36" viewBox="0 0 36 36" fill="none" xmlns="http://www.w3.org/2000/svg">
<g clip-path="url(#clip0_49_398)">
<path d="M27.9196 0H8.08036C3.6177 0 0 3.6177 0 8.08036V27.9196C0 32.3823 3.6177 36 8.08036 36H27.9196C32.3823 36 36 32.3823 36 27.9196V8.08036C36 3.6177 32.3823 0 27.9196 0Z" fill="#00C7FF"/>
<path fill-rule="evenodd" clip-rule="evenodd" d="M14.6394 22.5827C13.7889 22.5616 12.966 22.2767 12.2847 21.7673C11.6033 21.2579 11.0971 20.5493 10.8362 19.7396C11.4152 19.8678 12.0153 19.8678 12.5944 19.7396C12.0467 19.6109 11.5315 19.3706 11.0809 19.0338C10.6304 18.6969 10.2541 18.2707 9.97575 17.7818C9.56853 17.128 9.36054 16.3697 9.37721 15.5996C9.93617 15.9073 10.5601 16.0783 11.1978 16.0984C10.3419 15.5094 9.74056 14.6185 9.51438 13.6045C9.28571 12.5966 9.45075 11.5394 9.97575 10.6492C11.0029 11.9157 12.2833 12.9536 13.7349 13.6966C15.1865 14.4396 16.7772 14.8711 18.4053 14.9637C18.4053 14.8016 18.4053 14.6644 18.3429 14.5148C18.2308 13.666 18.3878 12.8035 18.7918 12.0487C19.1958 11.294 19.8265 10.685 20.595 10.3077C21.3634 9.93031 22.2309 9.80361 23.0752 9.94542C23.9195 10.0872 24.698 10.4904 25.301 11.0981C25.3272 11.127 25.3608 11.1481 25.3982 11.1591C25.4356 11.1701 25.4753 11.1705 25.513 11.1604C26.3494 10.9826 27.1529 10.6755 27.8947 10.2501C27.5967 11.1641 26.9936 11.9478 26.1864 12.4697C26.9735 12.3823 27.7428 12.1763 28.4683 11.8587L28.0568 12.4697C27.6243 13.0008 27.1256 13.4743 26.5729 13.8788C26.5523 13.8921 26.5357 13.9107 26.5247 13.9327C26.5138 13.9546 26.5089 13.9791 26.5106 14.0035C26.5345 14.6114 26.5095 15.2202 26.4357 15.8241C26.2769 17.0862 25.9192 18.3151 25.3758 19.4652C24.8254 20.6574 24.0794 21.749 23.1687 22.6949C21.6505 24.2787 19.691 25.3692 17.5449 25.8248C16.7945 25.9878 16.0305 26.0796 15.2629 26.0991C12.9582 26.1779 10.6827 25.5656 8.72879 24.3409L8.62903 24.2785C10.0118 24.4277 11.4098 24.2261 12.6941 23.6925C13.3906 23.4139 14.0452 23.0404 14.6394 22.5827Z" fill="white"/>
</g>
<defs>
<clipPath id="clip0_49_398">
<rect width="36" height="36" fill="white"/>
</clipPath>
</defs>
</svg>
